<svg xmlns="http://www.w3.org/2000/svg" x="0px" y="0px"
width="100" height="100"
viewBox="0 0 172 172"
style=" fill:#000000;"><g fill="none" fill-rule="nonzero" stroke="none" stroke-width="1" stroke-linecap="butt" stroke-linejoin="miter" stroke-miterlimit="10" stroke-dasharray="" stroke-dashoffset="0" font-family="none" font-weight="none" font-size="none" text-anchor="none" style="mix-blend-mode: normal"><path d="M0,172v-172h172v172z" fill="none"></path><g id="original-icon" fill="#49f4d2"><path d="M139.32,6.88c-10.44094,0 -18.92,8.47906 -18.92,18.92c0,10.44094 8.47906,18.92 18.92,18.92c10.44094,0 18.92,-8.47906 18.92,-18.92c0,-10.44094 -8.47906,-18.92 -18.92,-18.92zM139.32,13.76c6.75906,0 12.04,5.28094 12.04,12.04c0,6.75906 -5.28094,12.04 -12.04,12.04c-6.75906,0 -12.04,-5.28094 -12.04,-12.04c0,-6.75906 5.28094,-12.04 12.04,-12.04zM76.98344,30.96c-2.33812,0 -4.66281,0.47031 -6.82625,1.3975l-22.18531,9.58094c-0.59125,0.26875 -1.08844,0.68531 -1.46469,1.20938c-2.96969,1.81406 -5.22719,4.73 -5.22719,8.45219c0,5.65719 4.66281,10.32 10.32,10.32c0.87344,0 1.62594,-0.25531 2.41875,-0.45687c0.45688,0 0.91375,-0.08063 1.34375,-0.25531c0.06719,-0.02688 0.05375,-0.02688 0.1075,-0.05375c0.20156,-0.08063 0.38969,-0.17469 0.43,-0.18813l-0.04031,0.02688l21.27156,-9.39281h1.72l-15.31875,15.31875c-0.33594,0.33594 -0.59125,0.71219 -0.7525,1.14219c-0.01344,0 -0.01344,0 0,0c-2.48594,2.91594 -4.13875,6.5575 -4.25969,10.62906c-0.01344,0.01344 -0.02688,0.02688 -0.04031,0.04031l-17.26719,17.58969h-18.30188c-6.92031,0 -13.0075,5.67063 -12.56406,12.81938c0.38969,6.27531 5.65719,11.26062 12.01312,11.26062h24.95344c3.655,0 7.14875,-1.45125 9.72875,-4.03125l17.01188,-16.985l11.94594,8.97625v27.52c0,1.85438 0.47031,3.58781 1.22281,5.16h-28.40688c-2.74125,0 -6.07375,-0.88687 -8.64031,-2.31125l-7.18906,-4.12531c-0.59125,-0.34937 -1.29,-0.51062 -1.97531,-0.45687c-1.53187,0.09406 -2.80844,1.1825 -3.14437,2.67406c-0.33594,1.505 0.36281,3.03687 1.70656,3.77594l7.24281,4.12531l0.01344,0.01344c2.41875,1.34375 5.10625,2.2575 7.83406,2.75469c-1.88125,1.88125 -3.06375,4.46125 -3.06375,7.31c0,5.65719 4.66281,10.32 10.32,10.32c5.65719,0 10.32,-4.66281 10.32,-10.32c0,-2.64719 -1.04812,-5.03906 -2.70094,-6.88h39.80187c-1.65281,1.84094 -2.70094,4.23281 -2.70094,6.88c0,5.65719 4.66281,10.32 10.32,10.32c5.65719,0 10.32,-4.66281 10.32,-10.32c0,-2.83531 -1.16906,-5.42875 -3.05031,-7.29656c2.80844,-0.49719 5.42875,-1.45125 7.82063,-2.76812l0.01344,-0.01344l7.24281,-4.12531c1.65281,-0.95406 2.23062,-3.05031 1.29,-4.70313c-0.95406,-1.65281 -3.05031,-2.23062 -4.70313,-1.29l-7.18906,4.12531c-2.66063,1.47813 -5.4825,2.31125 -8.64031,2.31125h-11.20688c0.7525,-1.57219 1.22281,-3.30562 1.22281,-5.16v-34.4c0,-3.70875 -1.92156,-6.81281 -4.56875,-9.01656l-0.02687,-0.05375c-0.24188,-0.41656 -0.57781,-0.79281 -0.98094,-1.075c0,0 -5.57656,-4.085 -10.17219,-7.48469l1.24969,-1.29h31.69906c5.65719,0 10.32,-4.66281 10.32,-10.32c0,-5.65719 -4.66281,-10.32 -10.32,-10.32h-11.55625l3.3325,-3.41312v-0.02688c6.16781,-6.16781 6.16781,-16.40719 0.06719,-22.61531c-3.19812,-3.60125 -7.82062,-4.90469 -12.48344,-4.90469zM76.98344,37.84h29.65656c3.56094,0 5.76469,0.7525 7.37719,2.60688c0.05375,0.05375 0.1075,0.1075 0.16125,0.17469c3.42656,3.41312 3.42656,9.59437 0,13.02094c0,0.01344 -0.01344,0.01344 -0.02687,0.02688l-27.52,28.20531c-0.69875,0.71219 -1.04813,1.67969 -0.9675,2.67406c0.08062,0.98094 0.57781,1.89469 1.37062,2.48594c5.44219,4.085 12.91344,9.48688 13.19563,9.70188c0.14781,0.13437 0.3225,0.25531 0.49719,0.36281c1.49156,0.91375 2.4725,2.51281 2.4725,4.38062v34.4c0,2.88906 -2.27094,5.16 -5.16,5.16c-2.88906,0 -5.16,-2.27094 -5.16,-5.16v-29.24c0,-1.075 -0.51062,-2.09625 -1.37062,-2.74125l-21.09688,-15.85625l0.09406,1.53188c-0.05375,-0.9675 -0.52406,-1.86781 -1.27656,-2.4725c-2.365,-1.92156 -3.87,-4.74344 -3.87,-7.98188c0,-2.87562 1.15563,-5.42875 3.02344,-7.31c0.65844,-0.645 1.00781,-1.51844 1.00781,-2.43219v1.41094l20.19656,-20.19656c0.98094,-0.98094 1.27656,-2.45906 0.73906,-3.74906c-0.52406,-1.29 -1.77375,-2.12313 -3.17125,-2.12313h-10.75c-0.48375,0 -0.95406,0.1075 -1.38406,0.29563l-21.94344,9.675c-0.01344,0 -0.02688,0.01344 -0.02688,0.01344c-0.14781,0.06719 -0.12094,0.05375 -0.1075,0.05375c-0.05375,0.01344 -0.09406,0.02687 -0.12094,0.04031c-0.43,0.16125 -0.83313,0.24187 -1.22281,0.24187c-1.94844,0 -3.44,-1.49156 -3.44,-3.44c0,-1.53187 0.9675,-2.75469 2.32469,-3.225c0.87344,-0.30906 1.58563,-0.95406 1.97531,-1.78719c0.40313,-0.84656 0.43,-1.80063 0.1075,-2.67406l1.29,2.99656l19.0275,-8.22375c0.01344,0 0.01344,0 0,0c1.29,-0.56438 2.6875,-0.84656 4.09844,-0.84656zM109.005,68.8h18.275c1.90813,0 3.44,1.53188 3.44,3.44c0,1.90813 -1.53187,3.44 -3.44,3.44h-24.99375zM60.42844,86.55094c0.94063,1.74688 2.10969,3.34594 3.52063,4.71656c0.24187,0.51063 0.60469,0.9675 1.04812,1.30344l0.7525,0.57781c0.05375,0.02688 0.09406,0.06719 0.14781,0.09406c-0.17469,-0.1075 -0.1075,-0.05375 0.215,0.16125l2.37844,1.78719l-16.29969,16.31313c-1.30344,1.29 -3.05031,2.01562 -4.87781,2.01562h-24.95344c-2.9025,0 -4.97187,-2.00219 -5.14656,-4.81062c-0.17469,-2.91594 2.53969,-5.50938 5.6975,-5.50938h21.19094zM61.92,151.36c1.935,0 3.44,1.505 3.44,3.44c0,1.935 -1.505,3.44 -3.44,3.44c-1.935,0 -3.44,-1.505 -3.44,-3.44c0,-1.935 1.505,-3.44 3.44,-3.44zM116.96,151.36c1.935,0 3.44,1.505 3.44,3.44c0,1.935 -1.505,3.44 -3.44,3.44c-1.935,0 -3.44,-1.505 -3.44,-3.44c0,-1.935 1.505,-3.44 3.44,-3.44z"></path></g></g></svg>